# xmcd
#
# Track frame offsets:
#	150
#	18429
#	35638
#	50526
#	68421
#	86221
#	104820
#	120546
#	136588
#	154440
#	170654
#	187737
#	203830
#	219894
#
# Disc length: 3131 seconds
#
# Revision: 1
# Processed by: cddbd v1.4PL0 Copyright (c) Steve Scherf et al.
# Submitted via: audiograbber 1.82.02
#
DISCID=c00c390e
DTITLE=Dani Kalt - alles verdreiht
DYEAR=2002
DGENRE=Rock
TTITLE0=Alles oder nüt
TTITLE1=Tief in mim Härze
TTITLE2=Gib nid uf
TTITLE3=Solang sich d' Wält no dreiht
TTITLE4=Wohri Liebi
TTITLE5=Nie me lo go
TTITLE6=Alles verdreiht
TTITLE7=I bruche Di
TTITLE8=Irgendwo
TTITLE9=Schwindelndi Höchi
TTITLE10=Wenn Du am schlofe bisch
TTITLE11=S goht mer guet
TTITLE12=I ha Di fescht gärn
TTITLE13=Das wüsst i nid
EXTD=
EXTT0=
EXTT1=
EXTT2=
EXTT3=
EXTT4=
EXTT5=
EXTT6=
EXTT7=
EXTT8=
EXTT9=
EXTT10=
EXTT11=
EXTT12=
EXTT13=
PLAYORDER=
